<?xml version="1.0" standalone="no"?><!DOCTYPE svg PUBLIC "-//W3C//DTD SVG 1.1//EN" "http://www.w3.org/Graphics/SVG/1.1/DTD/svg11.dtd"><svg width="100%" height="100%" viewBox="0 0 389 337" version="1.1" xmlns="http://www.w3.org/2000/svg" xmlns:xlink="http://www.w3.org/1999/xlink" xml:space="preserve" style="fill-rule:evenodd;clip-rule:evenodd;stroke-linejoin:round;stroke-miterlimit:1.41421;"><g id="Layer1"><circle cx="62.919" cy="148.394" r="1.5" style="fill:#fff;"/><circle cx="62.919" cy="148.394" r="1.5" style="fill:#fff;"/><circle cx="122.919" cy="148.394" r="1.5" style="fill:#fff;"/><circle cx="122.919" cy="148.394" r="1.5" style="fill:#fff;"/><circle cx="162.919" cy="148.394" r="1.5" style="fill:#fff;"/><circle cx="162.919" cy="148.394" r="1.5" style="fill:#fff;"/><circle cx="252.919" cy="148.394" r="1.5" style="fill:#fff;"/><circle cx="252.919" cy="148.394" r="1.5" style="fill:#fff;"/><circle cx="209.919" cy="153.394" r="1.5" style="fill:#fff;"/><circle cx="209.919" cy="153.394" r="1.5" style="fill:#fff;"/><circle cx="299.919" cy="153.394" r="1.5" style="fill:#fff;"/><circle cx="299.919" cy="153.394" r="1.5" style="fill:#fff;"/><circle cx="349.919" cy="153.394" r="1.5" style="fill:#fff;"/><circle cx="349.919" cy="153.394" r="1.5" style="fill:#fff;"/><circle cx="309.919" cy="270" r="0.5" style="fill:#fff;"/><circle cx="309.919" cy="270" r="0.5" style="fill:#fff;"/><circle cx="179.919" cy="290" r="0.5" style="fill:#fff;"/><circle cx="179.919" cy="290" r="0.5" style="fill:#fff;"/><circle cx="273.919" cy="290" r="0.5" style="fill:#fff;"/><circle cx="273.919" cy="290" r="0.5" style="fill:#fff;"/><circle cx="273.919" cy="152" r="0.5" style="fill:#fff;"/><circle cx="273.919" cy="152" r="0.5" style="fill:#fff;"/><circle cx="304.919" cy="157" r="0.5" style="fill:#fff;"/><circle cx="304.919" cy="157" r="0.5" style="fill:#fff;"/><circle cx="354.919" cy="147" r="0.5" style="fill:#fff;"/><circle cx="354.919" cy="147" r="0.5" style="fill:#fff;"/><circle cx="294.919" cy="113" r="0.5" style="fill:#fff;"/><circle cx="294.919" cy="113" r="0.5" style="fill:#fff;"/><circle cx="156.919" cy="205" r="0.5" style="fill:#fff;"/><circle cx="156.919" cy="205" r="0.5" style="fill:#fff;"/><circle cx="141.919" cy="285" r="0.5" style="fill:#fff;"/><circle cx="141.919" cy="285" r="0.5" style="fill:#fff;"/><circle cx="101.919" cy="265" r="0.5" style="fill:#fff;"/><circle cx="101.919" cy="265" r="0.5" style="fill:#fff;"/><circle cx="71.919" cy="225" r="0.5" style="fill:#fff;"/><circle cx="71.919" cy="225" r="0.5" style="fill:#fff;"/><circle cx="61.919" cy="175" r="0.5" style="fill:#fff;"/><circle cx="61.919" cy="175" r="0.5" style="fill:#fff;"/><circle cx="81.919" cy="145" r="0.5" style="fill:#fff;"/><circle cx="81.919" cy="145" r="0.5" style="fill:#fff;"/><circle cx="91.919" cy="115" r="0.5" style="fill:#fff;"/><circle cx="91.919" cy="115" r="0.5" style="fill:#fff;"/><circle cx="121.919" cy="95" r="0.5" style="fill:#fff;"/><circle cx="121.919" cy="95" r="0.5" style="fill:#fff;"/><circle cx="181.919" cy="95" r="0.5" style="fill:#fff;"/><circle cx="181.919" cy="95" r="0.5" style="fill:#fff;"/><circle cx="241.919" cy="95" r="0.5" style="fill:#fff;"/><circle cx="241.919" cy="95" r="0.5" style="fill:#fff;"/><circle cx="181.919" cy="95" r="0.5" style="fill:#fff;"/><circle cx="181.919" cy="95" r="0.5" style="fill:#fff;"/><circle cx="311.919" cy="95" r="0.5" style="fill:#fff;"/><circle cx="311.919" cy="95" r="0.5" style="fill:#fff;"/><circle cx="258.919" cy="129" r="0.5" style="fill:#fff;"/><circle cx="258.919" cy="129" r="0.5" style="fill:#fff;"/><circle cx="258.919" cy="99" r="0.5" style="fill:#fff;"/><circle cx="258.919" cy="99" r="0.5" style="fill:#fff;"/><circle cx="255.919" cy="66" r="0.5" style="fill:#fff;"/><circle cx="255.919" cy="66" r="0.5" style="fill:#fff;"/><circle cx="262.919" cy="41" r="0.5" style="fill:#fff;"/><circle cx="262.919" cy="41" r="0.5" style="fill:#fff;"/><circle cx="222.919" cy="41" r="0.5" style="fill:#fff;"/><circle cx="222.919" cy="41" r="0.5" style="fill:#fff;"/><circle cx="202.919" cy="61" r="0.5" style="fill:#fff;"/><circle cx="202.919" cy="61" r="0.5" style="fill:#fff;"/><circle cx="162.919" cy="101" r="0.5" style="fill:#fff;"/><circle cx="162.919" cy="101" r="0.5" style="fill:#fff;"/><circle cx="142.919" cy="131" r="0.5" style="fill:#fff;"/><circle cx="142.919" cy="131" r="0.5" style="fill:#fff;"/><circle cx="322.919" cy="148.394" r="1.5" style="fill:#fff;"/><circle cx="322.919" cy="148.394" r="1.5" style="fill:#fff;"/><circle cx="383.919" cy="148.394" r="1.5" style="fill:#fff;"/><circle cx="383.919" cy="148.394" r="1.5" style="fill:#fff;"/><circle cx="64.919" cy="204.394" r="1.5" style="fill:#fff;"/><circle cx="64.919" cy="204.394" r="1.5" style="fill:#fff;"/><circle cx="87.919" cy="245.394" r="1.5" style="fill:#fff;"/><circle cx="87.919" cy="245.394" r="1.5" style="fill:#fff;"/><circle cx="127.919" cy="279.394" r="1.5" style="fill:#fff;"/><circle cx="127.919" cy="279.394" r="1.5" style="fill:#fff;"/><circle cx="237.919" cy="299.394" r="1.5" style="fill:#fff;"/><circle cx="237.919" cy="299.394" r="1.5" style="fill:#fff;"/><circle cx="351.573" cy="266.4" r="1.5" style="fill:#fff;"/><circle cx="351.573" cy="266.4" r="1.5" style="fill:#fff;"/><circle cx="88.573" cy="90.4" r="1.5" style="fill:#fff;"/><circle cx="88.573" cy="90.4" r="1.5" style="fill:#fff;"/><circle cx="143.573" cy="97.497" r="1.5" style="fill:#fff;"/><circle cx="143.573" cy="97.497" r="1.5" style="fill:#fff;"/><circle cx="202.442" cy="100.777" r="1.5" style="fill:#fff;"/><circle cx="202.442" cy="100.777" r="1.5" style="fill:#fff;"/><circle cx="273.29" cy="90.788" r="1.5" style="fill:#fff;"/><circle cx="273.29" cy="90.788" r="1.5" style="fill:#fff;"/><circle cx="270.29" cy="31.788" r="1.5" style="fill:#fff;"/><circle cx="270.29" cy="31.788" r="1.5" style="fill:#fff;"/><circle cx="201.774" cy="40.802" r="1.5" style="fill:#fff;"/><circle cx="201.774" cy="40.802" r="1.5" style="fill:#fff;"/><circle cx="190.419" cy="132.134" r="1.5" style="fill:#fff;"/><circle cx="190.419" cy="132.134" r="1.5" style="fill:#fff;"/><circle cx="304.35" cy="135.134" r="1.5" style="fill:#fff;"/><circle cx="304.35" cy="135.134" r="1.5" style="fill:#fff;"/><circle cx="305.85" cy="50.421" r="1.5" style="fill:#fff;"/><circle cx="305.85" cy="50.421" r="1.5" style="fill:#fff;"/><circle cx="151.158" cy="212.8" r="2.5" style="fill:#fff;"/><circle cx="151.158" cy="212.8" r="2.5" style="fill:#fff;"/></g></svg>