<?xml version="1.0" standalone="no"?>
<!DOCTYPE svg PUBLIC "-//W3C//DTD SVG 1.1//EN" "http://www.w3.org/Graphics/SVG/1.1/DTD/svg11.dtd">
<svg width="100%" height="100%" viewBox="0 0 30 30" version="1.1" xmlns="http://www.w3.org/2000/svg" xmlns:xlink="http://www.w3.org/1999/xlink" xml:space="preserve" style="fill-rule:evenodd;clip-rule:evenodd;stroke-linejoin:round;stroke-miterlimit:1.41421;">
  <g id="icon_deploy">
    <g id="icon_deploy_illustration">
      <circle id="Oval-495" cx="15" cy="15" r="5" style="fill:#f0f1f6;" />
      <circle id="Oval-495-Copy" cx="23" cy="7" r="3" style="fill:#f0f1f6;" />
      <path id="Combined-Shape" d="M18.876,6.051l0.933,-1.961l0.155,-0.018c-1.513,-0.689 -3.194,-1.072 -4.964,-1.072c-6.627,0 -12,5.373 -12,12c0,6.627 5.373,12 12,12c6.627,0 12,-5.373 12,-12c0,-1.566 -0.3,-3.062 -0.846,-4.434l-0.008,0.051l-2.048,0.871c0.421,1.09 0.652,2.274 0.652,3.512c0,5.385 -4.365,9.75 -9.75,9.75c-5.385,0 -9.75,-4.365 -9.75,-9.75c0,-5.385 4.365,-9.75 9.75,-9.75c1.377,0 2.688,0.286 3.876,0.801Z" style="fill:#f0f1f6;" />
    </g>
  </g>
</svg>
