<?xml version="1.0" standalone="no"?><!DOCTYPE svg PUBLIC "-//W3C//DTD SVG 1.1//EN" "http://www.w3.org/Graphics/SVG/1.1/DTD/svg11.dtd"><svg width="100%" height="100%" viewBox="0 0 24 24" version="1.1" xmlns="http://www.w3.org/2000/svg" xmlns:xlink="http://www.w3.org/1999/xlink" xml:space="preserve" style="fill-rule:evenodd;clip-rule:evenodd;stroke-linejoin:round;stroke-miterlimit:1.41421;"><g id="icon_node"><path id="Combined-Shape" d="M0.5,2l23,0l0,5.6l-23,0l0,-5.6ZM20.397,6.013c0.717,0 1.298,-0.588 1.298,-1.314c0,-0.726 -0.581,-1.315 -1.298,-1.315c-0.717,0 -1.298,0.589 -1.298,1.315c0,0.726 0.581,1.314 1.298,1.314ZM2.086,3.6l2.38,0l0,2.4l-2.38,0l0,-2.4ZM5.259,3.6l2.379,0l0,2.4l-2.379,0l0,-2.4ZM8.431,3.6l2.379,0l0,2.4l-2.379,0l0,-2.4Z" style="fill:#fff;"/><path id="Combined-Shape-Copy" d="M0.5,9.2l23,0l0,5.6l-23,0l0,-5.6ZM20.397,13.213c0.717,0 1.298,-0.588 1.298,-1.314c0,-0.726 -0.581,-1.315 -1.298,-1.315c-0.717,0 -1.298,0.589 -1.298,1.315c0,0.726 0.581,1.314 1.298,1.314ZM2.086,10.8l2.38,0l0,2.4l-2.38,0l0,-2.4ZM5.259,10.8l2.379,0l0,2.4l-2.379,0l0,-2.4ZM8.431,10.8l2.379,0l0,2.4l-2.379,0l0,-2.4Z" style="fill:#fff;"/><path id="Combined-Shape-Copy-2" d="M0.5,16.4l23,0l0,5.6l-23,0l0,-5.6ZM20.397,20.413c0.717,0 1.298,-0.588 1.298,-1.314c0,-0.726 -0.581,-1.315 -1.298,-1.315c-0.717,0 -1.298,0.589 -1.298,1.315c0,0.726 0.581,1.314 1.298,1.314ZM2.086,18l2.38,0l0,2.4l-2.38,0l0,-2.4ZM5.259,18l2.379,0l0,2.4l-2.379,0l0,-2.4ZM8.431,18l2.379,0l0,2.4l-2.379,0l0,-2.4Z" style="fill:#fff;"/></g></svg>