<?xml version="1.0" standalone="no"?><!DOCTYPE svg PUBLIC "-//W3C//DTD SVG 1.1//EN" "http://www.w3.org/Graphics/SVG/1.1/DTD/svg11.dtd"><svg width="100%" height="100%" viewBox="0 0 22 22" version="1.1" xmlns="http://www.w3.org/2000/svg" xmlns:xlink="http://www.w3.org/1999/xlink" xml:space="preserve" style="fill-rule:evenodd;clip-rule:evenodd;stroke-linejoin:round;stroke-miterlimit:1.41421;"><g id="icon_delete"><path d="M12,11l0,-11l-2,0.002l0,10.996l2,0.002Z" style="fill:#7ed321;"/><path d="M6.477,0.972l0.633,1.911c-1.765,0.849 -3.231,2.278 -4.125,4.022c-0.386,0.753 -0.664,1.56 -0.824,2.391c-0.187,0.975 -0.211,1.98 -0.074,2.963c0.129,0.915 0.399,1.808 0.801,2.64c0.47,0.977 1.119,1.866 1.904,2.615c0.813,0.774 1.769,1.396 2.808,1.821c1.077,0.44 2.237,0.665 3.4,0.665c1.163,0 2.323,-0.225 3.4,-0.665c1.039,-0.425 1.995,-1.047 2.808,-1.821c0.785,-0.749 1.434,-1.638 1.904,-2.615c0.402,-0.832 0.672,-1.725 0.801,-2.64c0.137,-0.983 0.113,-1.988 -0.074,-2.963c-0.16,-0.831 -0.438,-1.638 -0.824,-2.391c-0.894,-1.744 -2.359,-3.173 -4.124,-4.022l0.633,-1.91c0.041,0.018 0.082,0.037 0.123,0.056c1.121,0.523 2.151,1.237 3.036,2.101c0.884,0.864 1.622,1.875 2.172,2.982c0.462,0.928 0.791,1.922 0.973,2.943c0.205,1.147 0.227,2.327 0.065,3.481c-0.157,1.12 -0.488,2.214 -0.979,3.232c-0.575,1.193 -1.367,2.279 -2.326,3.193c-0.993,0.947 -2.161,1.706 -3.431,2.225c-1.317,0.538 -2.735,0.814 -4.157,0.814c-1.422,0 -2.84,-0.276 -4.157,-0.814c-1.27,-0.519 -2.438,-1.278 -3.431,-2.225c-0.959,-0.914 -1.751,-2 -2.326,-3.193c-0.491,-1.018 -0.822,-2.112 -0.979,-3.232c-0.162,-1.154 -0.14,-2.334 0.065,-3.481c0.182,-1.021 0.511,-2.015 0.973,-2.943c0.55,-1.107 1.288,-2.118 2.172,-2.982c0.885,-0.864 1.915,-1.578 3.036,-2.101c0.041,-0.019 0.082,-0.038 0.124,-0.057l0,0Z" style="fill:#7ed321;"/></g></svg>